HIERARCHY
ROOT hip
{
  OFFSET 0 90.174 2.4664
  CHANNELS 6 Xposition Yposition Zposition Zrotation Xrotation Yrotation
  JOINT abdomen
  {
    OFFSET 0 -1.186 -1.5018
    CHANNELS 6 Xposition Yposition Zposition Zrotation Xrotation Yrotation
    JOINT abdomen2
    {
      OFFSET 0 9.964 0.2134
      CHANNELS 6 Xposition Yposition Zposition Zrotation Xrotation Yrotation
      JOINT chest
      {
        OFFSET 0 13.134 -3.2573
        CHANNELS 6 Xposition Yposition Zposition Zrotation Xrotation Yrotation
        JOINT neck
        {
          OFFSET 0 20.686 -1.6905
          CHANNELS 6 Xposition Yposition Zposition Zrotation Xrotation Yrotation
          JOINT head
          {
            OFFSET 0 7.238 -0.1237
            CHANNELS 6 Xposition Yposition Zposition Zrotation Xrotation Yrotation
            End Site
            {
              OFFSET 0 0 0
            }
          }
        }
        JOINT lCollar
        {
          OFFSET 1.7069 20.075 5.0056
          CHANNELS 6 Xposition Yposition Zposition Zrotation Xrotation Yrotation
          JOINT lShldr
          {
            OFFSET 13.6458 -0.047 -4.849
            CHANNELS 6 Xposition Yposition Zposition Zrotation Xrotation Yrotation
            JOINT lForeArm
            {
              OFFSET 28.3255 -0.9759 2.2888
              CHANNELS 6 Xposition Yposition Zposition Zrotation Xrotation Yrotation
              JOINT lHand
              {
                OFFSET 22.1583 -0.53 10.8316
                CHANNELS 6 Xposition Yposition Zposition Zrotation Xrotation Yrotation
                JOINT lThumb1
                {
                  OFFSET 0.786 0.112 2.5817
                  CHANNELS 6 Xposition Yposition Zposition Zrotation Xrotation Yrotation
                  JOINT lThumb2
                  {
                    OFFSET 0.3601 -0.878 4.2331
                    CHANNELS 6 Xposition Yposition Zposition Zrotation Xrotation Yrotation
                    JOINT lThumb2_End
                    {
                      OFFSET 1.8127 -1.216 2.2227
                      CHANNELS 6 Xposition Yposition Zposition Zrotation Xrotation Yrotation
                      End Site
                      {
                        OFFSET 0.0181 -0.0122 0.0222
                      }
                    }
                  }
                }
                JOINT lCarpal1
                {
                  OFFSET 0.9571 1.114 1.7695
                  CHANNELS 6 Xposition Yposition Zposition Zrotation Xrotation Yrotation
                  JOINT lIndex1
                  {
                    OFFSET 4.1246 0.487 4.1451
                    CHANNELS 6 Xposition Yposition Zposition Zrotation Xrotation Yrotation
                    JOINT lIndex2
                    {
                      OFFSET 3.4052 -1.454 2.7682
                      CHANNELS 6 Xposition Yposition Zposition Zrotation Xrotation Yrotation
                      JOINT lIndex2_End
                      {
                        OFFSET 1.4531 -1.795 1.2713
                        CHANNELS 6 Xposition Yposition Zposition Zrotation Xrotation Yrotation
                        End Site
                        {
                          OFFSET 0.0145 -0.0179 0.0127
                        }
                      }
                    }
                  }
                  JOINT lMid1
                  {
                    OFFSET 5.6954 0.21 2.1184
                    CHANNELS 6 Xposition Yposition Zposition Zrotation Xrotation Yrotation
                    JOINT lMid2
                    {
                      OFFSET 3.9766 -1.54 2.3863
                      CHANNELS 6 Xposition Yposition Zposition Zrotation Xrotation Yrotation
                      JOINT lMid2_End
                      {
                        OFFSET 1.4042 -1.926 1.125
                        CHANNELS 6 Xposition Yposition Zposition Zrotation Xrotation Yrotation
                        End Site
                        {
                          OFFSET 0.014 -0.0193 0.0113
                        }
                      }
                    }
                  }
                }
                JOINT lCarpal2
                {
                  OFFSET 2.0956 0.66 -0.3894
                  CHANNELS 6 Xposition Yposition Zposition Zrotation Xrotation Yrotation
                  JOINT lRing1
                  {
                    OFFSET 5.0395 -0.09 2.4971
                    CHANNELS 6 Xposition Yposition Zposition Zrotation Xrotation Yrotation
                    JOINT lRing2
                    {
                      OFFSET 3.7921 -1.552 1.4806
                      CHANNELS 6 Xposition Yposition Zposition Zrotation Xrotation Yrotation
                      JOINT lRing2_End
                      {
                        OFFSET 1.4655 -1.808 0.9609
                        CHANNELS 6 Xposition Yposition Zposition Zrotation Xrotation Yrotation
                        End Site
                        {
                          OFFSET 0.0147 -0.0181 0.0096
                        }
                      }
                    }
                  }
                  JOINT lPinky1
                  {
                    OFFSET 4.9141 -1.269 0.3591
                    CHANNELS 6 Xposition Yposition Zposition Zrotation Xrotation Yrotation
                    JOINT lPinky2
                    {
                      OFFSET 3.1477 -1.685 0.8462
                      CHANNELS 6 Xposition Yposition Zposition Zrotation Xrotation Yrotation
                      JOINT lPinky2_End
                      {
                        OFFSET 0.8055 -1.585 0.7955
                        CHANNELS 6 Xposition Yposition Zposition Zrotation Xrotation Yrotation
                        End Site
                        {
                          OFFSET 0.0081 -0.0158 0.008
                        }
                      }
                    }
                  }
                }
              }
            }
          }
        }
        JOINT rCollar
        {
          OFFSET -1.7069 20.075 5.0056
          CHANNELS 6 Xposition Yposition Zposition Zrotation Xrotation Yrotation
          JOINT rShldr
          {
            OFFSET -13.6458 -0.047 -4.849
            CHANNELS 6 Xposition Yposition Zposition Zrotation Xrotation Yrotation
            JOINT rForeArm
            {
              OFFSET -28.3255 -0.9759 2.2888
              CHANNELS 6 Xposition Yposition Zposition Zrotation Xrotation Yrotation
              JOINT rHand
              {
                OFFSET -22.1583 -0.53 10.8316
                CHANNELS 6 Xposition Yposition Zposition Zrotation Xrotation Yrotation
                JOINT rThumb1
                {
                  OFFSET -0.786 0.112 2.5817
                  CHANNELS 6 Xposition Yposition Zposition Zrotation Xrotation Yrotation
                  JOINT rThumb2
                  {
                    OFFSET -0.3601 -0.878 4.2331
                    CHANNELS 6 Xposition Yposition Zposition Zrotation Xrotation Yrotation
                    JOINT rThumb2_End
                    {
                      OFFSET -1.8127 -1.216 2.2227
                      CHANNELS 6 Xposition Yposition Zposition Zrotation Xrotation Yrotation
                      End Site
                      {
                        OFFSET -0.0181 -0.0122 0.0222
                      }
                    }
                  }
                }
                JOINT rCarpal1
                {
                  OFFSET -0.9571 1.114 1.7695
                  CHANNELS 6 Xposition Yposition Zposition Zrotation Xrotation Yrotation
                  JOINT rIndex1
                  {
                    OFFSET -4.1246 0.487 4.1451
                    CHANNELS 6 Xposition Yposition Zposition Zrotation Xrotation Yrotation
                    JOINT rIndex2
                    {
                      OFFSET -3.4052 -1.454 2.7682
                      CHANNELS 6 Xposition Yposition Zposition Zrotation Xrotation Yrotation
                      JOINT rIndex2_End
                      {
                        OFFSET -1.4531 -1.795 1.2713
                        CHANNELS 6 Xposition Yposition Zposition Zrotation Xrotation Yrotation
                        End Site
                        {
                          OFFSET -0.0145 -0.018 0.0127
                        }
                      }
                    }
                  }
                  JOINT rMid1
                  {
                    OFFSET -5.6954 0.21 2.1184
                    CHANNELS 6 Xposition Yposition Zposition Zrotation Xrotation Yrotation
                    JOINT rMid2
                    {
                      OFFSET -3.9766 -1.54 2.3863
                      CHANNELS 6 Xposition Yposition Zposition Zrotation Xrotation Yrotation
                      JOINT rMid2_End
                      {
                        OFFSET -1.4042 -1.926 1.125
                        CHANNELS 6 Xposition Yposition Zposition Zrotation Xrotation Yrotation
                        End Site
                        {
                          OFFSET -0.014 -0.0193 0.0113
                        }
                      }
                    }
                  }
                }
                JOINT rCarpal2
                {
                  OFFSET -2.0956 0.66 -0.3894
                  CHANNELS 6 Xposition Yposition Zposition Zrotation Xrotation Yrotation
                  JOINT rRing1
                  {
                    OFFSET -5.0395 -0.09 2.4971
                    CHANNELS 6 Xposition Yposition Zposition Zrotation Xrotation Yrotation
                    JOINT rRing2
                    {
                      OFFSET -3.7921 -1.552 1.4806
                      CHANNELS 6 Xposition Yposition Zposition Zrotation Xrotation Yrotation
                      JOINT rRing2_End
                      {
                        OFFSET -1.4655 -1.808 0.9609
                        CHANNELS 6 Xposition Yposition Zposition Zrotation Xrotation Yrotation
                        End Site
                        {
                          OFFSET -0.0147 -0.0181 0.0096
                        }
                      }
                    }
                  }
                  JOINT rPinky1
                  {
                    OFFSET -4.9141 -1.269 0.3592
                    CHANNELS 6 Xposition Yposition Zposition Zrotation Xrotation Yrotation
                    JOINT rPinky2
                    {
                      OFFSET -3.1477 -1.685 0.8462
                      CHANNELS 6 Xposition Yposition Zposition Zrotation Xrotation Yrotation
                      JOINT rPinky2_End
                      {
                        OFFSET -0.8055 -1.585 0.7955
                        CHANNELS 6 Xposition Yposition Zposition Zrotation Xrotation Yrotation
                        End Site
                        {
                          OFFSET -0.0081 -0.0158 0.008
                        }
                      }
                    }
                  }
                }
              }
            }
          }
        }
      }
    }
  }
  JOINT lThigh
  {
    OFFSET 8.367 -8.2066 0.5982
    CHANNELS 6 Xposition Yposition Zposition Zrotation Xrotation Yrotation
    JOINT lShin
    {
      OFFSET 2.1923 -43.463 -0.4932
      CHANNELS 6 Xposition Yposition Zposition Zrotation Xrotation Yrotation
      JOINT lFoot
      {
        OFFSET 0.7333 -45.8593 -2.6451
        CHANNELS 6 Xposition Yposition Zposition Zrotation Xrotation Yrotation
        End Site
        {
          OFFSET 2.6618 -4.2699 12.3931
        }
      }
    }
  }
  JOINT rThigh
  {
    OFFSET -8.367 -8.2066 0.5982
    CHANNELS 6 Xposition Yposition Zposition Zrotation Xrotation Yrotation
    JOINT rShin
    {
      OFFSET -2.1923 -43.463 -0.4931
      CHANNELS 6 Xposition Yposition Zposition Zrotation Xrotation Yrotation
      JOINT rFoot
      {
        OFFSET -0.7333 -45.8593 -2.6451
        CHANNELS 6 Xposition Yposition Zposition Zrotation Xrotation Yrotation
        End Site
        {
          OFFSET -2.6618 -4.2699 12.3931
        }
      }
    }
  }
}
MOTION
Frames:	4
Frame Time:	0.0333333
0 90.174 2.4664 0 0 -0 0 -1.186 -1.5018 0 0 -0 0 9.964 0.2134 0 0 -0 0 13.134 -3.2573 0 0 -0 0 20.686 -1.6905 0 0 -0 0 7.238 -0.1237 0 0 -0 1.7069 20.075 5.0056 0 0 -0 13.6458 -0.047 -4.849 1.66051 0.0835086 5.75766 28.3255 -0.9759 2.2888 -0.0175111 0.895433 15.7816 22.1583 -0.53 10.8316 7.95139e-016 -1.98785e-016 -0 0.786 0.112 2.5817 5.46658e-016 -3.97569e-016 -0 0.3601 -0.878 4.2331 5.96354e-016 0 -0 1.8127 -1.216 2.2227 3.97569e-016 1.98785e-016 9.54166e-015 0.9571 1.114 1.7695 1.49089e-016 -3.97569e-016 -0 4.1246 0.487 4.1451 6.4605e-016 0 3.18055e-015 3.4052 -1.454 2.7682 5.96354e-016 0 3.18055e-015 1.4531 -1.795 1.2713 8.94531e-016 -1.98785e-016 6.36111e-015 5.6954 0.21 2.1184 6.4605e-016 0 3.18055e-015 3.9766 -1.54 2.3863 5.96354e-016 0 3.18055e-015 1.4042 -1.926 1.125 8.94531e-016 -1.98785e-016 6.36111e-015 2.0956 0.66 -0.3894 1.49089e-016 -3.97569e-016 -0 5.0395 -0.09 2.4971 6.4605e-016 0 3.18055e-015 3.7921 -1.552 1.4806 5.96354e-016 0 3.18055e-015 1.4655 -1.808 0.9609 8.94531e-016 -1.98785e-016 6.36111e-015 4.9141 -1.269 0.3591 6.4605e-016 0 3.18055e-015 3.1477 -1.685 0.8462 5.96354e-016 0 3.18055e-015 0.8055 -1.585 0.7955 8.94531e-016 -1.98785e-016 6.36111e-015 -1.7069 20.075 5.0056 0 0 -0 -13.6458 -0.047 -4.849 -1.4496 0.0636048 -5.0245 -28.3255 -0.9759 2.2888 -1.74811 1.20616 -16.8394 -22.1583 -0.53 10.8316 -1.19271e-015 1.98785e-016 -3.18055e-015 -0.786 0.112 2.5817 -3.97569e-016 1.98785e-016 -3.18055e-015 -0.3601 -0.878 4.2331 -2.98177e-016 1.98785e-016 -3.18055e-015 -1.8127 -1.216 2.2227 -2.98177e-016 3.97569e-016 -0 -0.9571 1.114 1.7695 4.96962e-016 0 -6.36111e-015 -4.1246 0.487 4.1451 -9.93923e-017 3.97569e-016 -0 -3.4052 -1.454 2.7682 -8.94531e-016 5.96354e-016 -0 -1.4531 -1.795 1.2713 -3.97569e-016 3.97569e-016 -0 -5.6954 0.21 2.1184 -9.93923e-017 3.97569e-016 -0 -3.9766 -1.54 2.3863 -8.94531e-016 5.96354e-016 -0 -1.4042 -1.926 1.125 -3.97569e-016 3.97569e-016 -0 -2.0956 0.66 -0.3894 4.96962e-016 0 -6.36111e-015 -5.0395 -0.09 2.4971 -9.93923e-017 3.97569e-016 -0 -3.7921 -1.552 1.4806 -8.94531e-016 5.96354e-016 -0 -1.4655 -1.808 0.9609 -3.97569e-016 3.97569e-016 -0 -4.9141 -1.269 0.3592 -9.93923e-017 3.97569e-016 -0 -3.1477 -1.685 0.8462 -8.94531e-016 5.96354e-016 -0 -0.8055 -1.585 0.7955 -3.97569e-016 3.97569e-016 -0 8.367 -8.2066 0.5982 -4.66115 -1.03232 0.120763 2.1923 -43.463 -0.4932 0.00990601 1.55097 0.177175 0.7333 -45.8593 -2.6451 4.65196 -0.54114 -0.255042 -8.367 -8.2066 0.5982 4.66115 -1.03222 -0.120763 -2.1923 -43.463 -0.4931 -0.00990459 1.5509 -0.177176 -0.7333 -45.8593 -2.6451 -4.65196 -0.541171 0.255041 
-0.564509 81.4575 5.86125 0 9.05308 -0 0 -1.186 -1.5018 -0.671419 -1.28913 -0.251292 0 9.964 0.2134 -1.349 -2.5752 -0.517877 4.44089e-016 13.134 -3.2573 -1.349 -2.5752 -0.517876 1.77636e-015 20.686 -1.6905 0.132125 0.178007 -0.00156489 8.88178e-016 7.238 -0.1237 -7.1221e-008 0.211627 -1.50018e-007 1.7069 20.075 5.0056 3.62059 10.6428 -3.79445 13.6458 -0.047 -4.849 -54.6494 -1.71962 -9.94473 28.3255 -0.9759 2.2888 -16.1895 28.2828 -60.3006 22.1583 -0.53 10.8316 -7.95508 4.89926 9.78839 0.786 0.112 2.5817 8.9916e-007 -9.74884e-007 -1.06917e-006 0.3601 -0.878 4.2331 -3.18055e-015 9.54166e-015 -4.77083e-015 1.8127 -1.216 2.2227 4.41391e-031 1.59028e-014 -1.59028e-015 0.9571 1.114 1.7695 6.36111e-015 -3.18055e-015 3.18055e-015 4.1246 0.487 4.1451 8.9916e-007 -9.74884e-007 -1.06917e-006 3.4052 -1.454 2.7682 8.82781e-031 1.59028e-014 -3.18055e-015 1.4531 -1.795 1.2713 -3.18055e-015 9.54166e-015 -3.18055e-015 5.6954 0.21 2.1184 8.9916e-007 -9.74884e-007 -1.06917e-006 3.9766 -1.54 2.3863 8.82781e-031 1.59028e-014 -3.18055e-015 1.4042 -1.926 1.125 -3.18055e-015 9.54166e-015 -3.18055e-015 2.0956 0.66 -0.3894 6.36111e-015 -3.18055e-015 3.18055e-015 5.0395 -0.09 2.4971 8.9916e-007 -9.74884e-007 -1.06917e-006 3.7921 -1.552 1.4806 8.82781e-031 1.59028e-014 -3.18055e-015 1.4655 -1.808 0.9609 -3.18055e-015 9.54166e-015 -3.18055e-015 4.9141 -1.269 0.3591 8.9916e-007 -9.74884e-007 -1.06917e-006 3.1477 -1.685 0.8462 8.82781e-031 1.59028e-014 -3.18055e-015 0.8055 -1.585 0.7955 -3.18055e-015 9.54166e-015 -3.18055e-015 -1.7069 20.075 5.0056 -3.96547 10.2505 3.28156 -13.6458 -0.047 -4.849 54.5826 -1.80832 10.8138 -28.3255 -0.9759 2.2888 15.4859 26.2884 58.7111 -22.1583 -0.53 10.8316 9.46769 5.94934 -8.7428 -0.786 0.112 2.5817 8.8091e-007 1.06486e-006 -9.90946e-007 -0.3601 -0.878 4.2331 3.18055e-015 -3.18055e-015 1.59028e-015 -1.8127 -1.216 2.2227 -4.40455e-007 -5.32429e-007 4.95473e-007 -0.9571 1.114 1.7695 -3.18055e-015 3.18055e-015 4.77083e-015 -4.1246 0.487 4.1451 8.8091e-007 1.06486e-006 -9.90946e-007 -3.4052 -1.454 2.7682 6.36111e-015 -6.36111e-015 4.77083e-015 -1.4531 -1.795 1.2713 -4.40455e-007 -5.32429e-007 4.95473e-007 -5.6954 0.21 2.1184 8.8091e-007 1.06486e-006 -9.90946e-007 -3.9766 -1.54 2.3863 6.36111e-015 -6.36111e-015 4.77083e-015 -1.4042 -1.926 1.125 -4.40455e-007 -5.32429e-007 4.95473e-007 -2.0956 0.66 -0.3894 -3.18055e-015 3.18055e-015 4.77083e-015 -5.0395 -0.09 2.4971 8.8091e-007 1.06486e-006 -9.90946e-007 -3.7921 -1.552 1.4806 6.36111e-015 -6.36111e-015 4.77083e-015 -1.4655 -1.808 0.9609 -4.40455e-007 -5.32429e-007 4.95473e-007 -4.9141 -1.269 0.3592 8.8091e-007 1.06486e-006 -9.90946e-007 -3.1477 -1.685 0.8462 6.36111e-015 -6.36111e-015 4.77083e-015 -0.8055 -1.585 0.7955 -4.40455e-007 -5.32429e-007 4.95473e-007 8.367 -8.2066 0.5982 22.8291 -45.3367 40.3936 2.1923 -43.463 -0.4932 143.589 43.1715 -139.286 0.7333 -45.8593 -2.6451 -11.5382 40.3737 -10.6741 -8.367 -8.2066 0.5982 -27.0316 -46.9282 -41.9315 -2.1923 -43.463 -0.4931 -143.265 43.4774 139.085 -0.7333 -45.8593 -2.6451 13.7553 39.3795 10.8319 
-0.533488 82.1116 6.16126 0 6.67428 -0 0 -1.186 -1.5018 -0.631149 -0.595249 -0.240828 2.22045e-016 9.964 0.2134 -1.2649 -1.1878 -0.488236 -4.44089e-016 13.134 -3.2573 -1.2649 -1.1878 -0.488237 -8.88178e-016 20.686 -1.6905 0.179056 0.240742 -0.00661155 0 7.238 -0.1237 2.19011e-007 0.286268 2.94655e-007 1.7069 20.075 5.0056 3.63761 8.67321 -3.91004 13.6458 -0.047 -4.849 -51.313 -1.61959 -9.02029 28.3255 -0.9759 2.2888 -16.2325 29.9368 -55.7301 22.1583 -0.53 10.8316 -7.55709 4.18567 8.78227 0.786 0.112 2.5817 4.33559e-007 -5.09304e-007 -5.22306e-007 0.3601 -0.878 4.2331 5.47913e-006 -2.27675e-006 1.90155e-006 1.8127 -1.216 2.2227 8.67117e-007 -1.01861e-006 -1.04461e-006 0.9571 1.114 1.7695 6.36111e-015 -3.18055e-015 1.59028e-015 4.1246 0.487 4.1451 4.33559e-007 -5.09304e-007 -5.22306e-007 3.4052 -1.454 2.7682 5.47913e-006 -2.27675e-006 1.90155e-006 1.4531 -1.795 1.2713 8.67117e-007 -1.01861e-006 -1.04461e-006 5.6954 0.21 2.1184 4.33559e-007 -5.09304e-007 -5.22306e-007 3.9766 -1.54 2.3863 5.47913e-006 -2.27675e-006 1.90155e-006 1.4042 -1.926 1.125 8.67117e-007 -1.01861e-006 -1.04461e-006 2.0956 0.66 -0.3894 6.36111e-015 -3.18055e-015 1.59028e-015 5.0395 -0.09 2.4971 4.33559e-007 -5.09304e-007 -5.22306e-007 3.7921 -1.552 1.4806 5.47913e-006 -2.27675e-006 1.90155e-006 1.4655 -1.808 0.9609 8.67117e-007 -1.01861e-006 -1.04461e-006 4.9141 -1.269 0.3591 4.33559e-007 -5.09304e-007 -5.22306e-007 3.1477 -1.685 0.8462 5.47913e-006 -2.27675e-006 1.90155e-006 0.8055 -1.585 0.7955 8.67117e-007 -1.01861e-006 -1.04461e-006 -1.7069 20.075 5.0056 -3.95657 8.32069 3.46893 -13.6458 -0.047 -4.849 51.2609 -1.70485 9.88132 -28.3255 -0.9759 2.2888 15.43 27.946 54.247 -22.1583 -0.53 10.8316 8.90969 5.14403 -7.85686 -0.786 0.112 2.5817 -3.18055e-015 0 -1.59028e-015 -0.3601 -0.878 4.2331 1.68436e-006 2.20869e-006 -1.93852e-006 -1.8127 -1.216 2.2227 8.42181e-007 1.10435e-006 -9.69258e-007 -0.9571 1.114 1.7695 -6.36111e-015 0 -0 -4.1246 0.487 4.1451 -3.18055e-015 3.18055e-015 -3.18055e-015 -3.4052 -1.454 2.7682 1.68436e-006 2.20869e-006 -1.93852e-006 -1.4531 -1.795 1.2713 8.42181e-007 1.10435e-006 -9.69258e-007 -5.6954 0.21 2.1184 -3.18055e-015 3.18055e-015 -3.18055e-015 -3.9766 -1.54 2.3863 1.68436e-006 2.20869e-006 -1.93852e-006 -1.4042 -1.926 1.125 8.42181e-007 1.10435e-006 -9.69258e-007 -2.0956 0.66 -0.3894 -6.36111e-015 0 -0 -5.0395 -0.09 2.4971 -3.18055e-015 3.18055e-015 -3.18055e-015 -3.7921 -1.552 1.4806 1.68436e-006 2.20869e-006 -1.93852e-006 -1.4655 -1.808 0.9609 8.42181e-007 1.10435e-006 -9.69258e-007 -4.9141 -1.269 0.3592 -3.18055e-015 3.18055e-015 -3.18055e-015 -3.1477 -1.685 0.8462 1.68436e-006 2.20869e-006 -1.93852e-006 -0.8055 -1.585 0.7955 8.42181e-007 1.10435e-006 -9.69258e-007 8.367 -8.2066 0.5982 20.1243 -39.7295 36.2921 2.1923 -43.463 -0.4932 137.995 50.7575 -136.482 0.7333 -45.8593 -2.6451 -9.39198 37.5007 -11.1358 -8.367 -8.2066 0.5982 -23.7879 -41.3469 -37.5169 -2.1923 -43.463 -0.4931 -137.658 50.9981 136.23 -0.7333 -45.8593 -2.6451 11.4088 36.6023 11.3431 
-0.534147 82.1576 6.66072 0 4.92653 -0 0 -1.186 -1.5018 -0.634911 -0.00125316 -0.235477 -2.22045e-016 9.964 0.2134 -1.26982 9.25162e-005 -0.470954 -4.44089e-016 13.134 -3.2573 -1.26982 8.98622e-005 -0.470954 0 20.686 -1.6905 0.231085 0.309908 -0.011474 0 7.238 -0.1237 -3.70893e-007 0.368524 -2.31376e-007 1.7069 20.075 5.0056 3.88455 7.39888 -4.23 13.6458 -0.047 -4.849 -51.313 -1.6196 -9.02029 28.3255 -0.9759 2.2888 -16.1655 29.6802 -55.0757 22.1583 -0.53 10.8316 -7.64053 3.78606 8.38747 0.786 0.112 2.5817 -9.54166e-015 3.18055e-015 -3.18055e-015 0.3601 -0.878 4.2331 -1.29466e-006 1.53044e-006 1.56902e-006 1.8127 -1.216 2.2227 -4.31554e-007 5.10147e-007 5.23007e-007 0.9571 1.114 1.7695 -3.18055e-015 6.36111e-015 -1.59028e-015 4.1246 0.487 4.1451 -6.36111e-015 0 4.77083e-015 3.4052 -1.454 2.7682 -1.29466e-006 1.53044e-006 1.56902e-006 1.4531 -1.795 1.2713 -4.31554e-007 5.10147e-007 5.23007e-007 5.6954 0.21 2.1184 -6.36111e-015 0 4.77083e-015 3.9766 -1.54 2.3863 -1.29466e-006 1.53044e-006 1.56902e-006 1.4042 -1.926 1.125 -4.31554e-007 5.10147e-007 5.23007e-007 2.0956 0.66 -0.3894 -3.18055e-015 6.36111e-015 -1.59028e-015 5.0395 -0.09 2.4971 -6.36111e-015 0 4.77083e-015 3.7921 -1.552 1.4806 -1.29466e-006 1.53044e-006 1.56902e-006 1.4655 -1.808 0.9609 -4.31554e-007 5.10147e-007 5.23007e-007 4.9141 -1.269 0.3591 -6.36111e-015 0 4.77083e-015 3.1477 -1.685 0.8462 -1.29466e-006 1.53044e-006 1.56902e-006 0.8055 -1.585 0.7955 -4.31554e-007 5.10147e-007 5.23007e-007 -1.7069 20.075 5.0056 -4.19095 7.06274 3.82734 -13.6458 -0.047 -4.849 51.2609 -1.70485 9.88132 -28.3255 -0.9759 2.2888 15.3443 27.717 53.6337 -22.1583 -0.53 10.8316 8.92707 4.71584 -7.52316 -0.786 0.112 2.5817 -3.18055e-015 6.36111e-015 -9.54166e-015 -0.3601 -0.878 4.2331 -8.37906e-007 -1.10657e-006 9.70088e-007 -1.8127 -1.216 2.2227 -8.37906e-007 -1.10657e-006 9.70088e-007 -0.9571 1.114 1.7695 3.18055e-015 0 -3.18055e-015 -4.1246 0.487 4.1451 -6.36111e-015 6.36111e-015 -6.36111e-015 -3.4052 -1.454 2.7682 -8.37906e-007 -1.10657e-006 9.70088e-007 -1.4531 -1.795 1.2713 -8.37906e-007 -1.10657e-006 9.70088e-007 -5.6954 0.21 2.1184 -6.36111e-015 6.36111e-015 -6.36111e-015 -3.9766 -1.54 2.3863 -8.37906e-007 -1.10657e-006 9.70088e-007 -1.4042 -1.926 1.125 -8.37906e-007 -1.10657e-006 9.70088e-007 -2.0956 0.66 -0.3894 3.18055e-015 0 -3.18055e-015 -5.0395 -0.09 2.4971 -6.36111e-015 6.36111e-015 -6.36111e-015 -3.7921 -1.552 1.4806 -8.37906e-007 -1.10657e-006 9.70088e-007 -1.4655 -1.808 0.9609 -8.37906e-007 -1.10657e-006 9.70088e-007 -4.9141 -1.269 0.3592 -6.36111e-015 6.36111e-015 -6.36111e-015 -3.1477 -1.685 0.8462 -8.37906e-007 -1.10657e-006 9.70088e-007 -0.8055 -1.585 0.7955 -8.37906e-007 -1.10657e-006 9.70088e-007 8.367 -8.2066 0.5982 20.403 -36.9479 36.0783 2.1923 -43.463 -0.4932 137.221 51.2624 -136.006 0.7333 -45.8593 -2.6451 -8.4875 37.2412 -11.7084 -8.367 -8.2066 0.5982 -24.0195 -38.5946 -37.2317 -2.1923 -43.463 -0.4931 -136.913 51.4766 135.776 -0.7333 -45.8593 -2.6451 10.4343 36.3468 11.9725 
